<svg id="Layer_1" data-name="Layer 1" xmlns="http://www.w3.org/2000/svg" xmlns:xlink="http://www.w3.org/1999/xlink" viewBox="0 0 224.98 224.98"><defs><style>.cls-1,.cls-2,.cls-3,.cls-4,.cls-5{stroke:#000;stroke-miterlimit:10;stroke-width:2px;}.cls-1{fill:url(#linear-gradient);}.cls-2{fill:url(#linear-gradient-2);}.cls-3{fill:url(#linear-gradient-3);}.cls-4{fill:url(#linear-gradient-4);}.cls-5{fill:url(#linear-gradient-5);}</style><linearGradient id="linear-gradient" x1="22.73" y1="202.45" x2="27.55" y2="202.45" gradientTransform="matrix(41.91, 19.54, 19.54, -41.91, -4891.56, 8120.66)" gradientUnits="userSpaceOnUse"><stop offset="0" stop-color="#0d7ce9"/><stop offset="1" stop-color="#15cff1"/></linearGradient><linearGradient id="linear-gradient-2" x1="20.05" y1="212.93" x2="24.88" y2="212.93" gradientTransform="matrix(15.97, 3.74, 7.45, -8.01, -1811.16, 1752.78)" xlink:href="#linear-gradient"/><linearGradient id="linear-gradient-3" x1="25.31" y1="243.37" x2="30.14" y2="243.37" gradientTransform="matrix(1.77, 0.83, 0.83, -1.77, -167.54, 561)" xlink:href="#linear-gradient"/><linearGradient id="linear-gradient-4" x1="39.9" y1="250.17" x2="44.72" y2="250.17" gradientTransform="matrix(1.77, 0.83, 0.83, -1.77, -159.32, 561)" xlink:href="#linear-gradient"/><linearGradient id="linear-gradient-5" x1="23.03" y1="207.58" x2="27.85" y2="207.58" gradientTransform="matrix(16.3, 7.04, 7.6, -15.09, -1847.14, 3081.74)" xlink:href="#linear-gradient"/></defs><path class="cls-1" d="M151.94,35.85A106.54,106.54,0,1,1,45.4,142.39,106.69,106.69,0,0,1,151.94,35.85m0-5A111.49,111.49,0,1,0,263.43,142.39,111.5,111.5,0,0,0,151.94,30.9Z" transform="translate(-39.45 -29.9)"/><path class="cls-2" d="M180.92,119.35l-9.16,30.22-.75,2.48H119.48a15.41,15.41,0,0,1-1.24-2.73l-9.16-30h71.84m6.45-5h-85l11.14,36.42c1.24,4,2.73,6.19,6.2,6.19h54.75l1.74-6.19,9.16-30.22Z" transform="translate(-39.45 -29.9)"/><circle class="cls-3" cx="83.75" cy="153.86" r="4.71"/><circle class="cls-4" cx="123.39" cy="153.86" r="4.71"/><path class="cls-5" d="M159.37,174.35h-44.6v-6.2h44.6c4.71,0,5.95-1.24,6.69-4l1.24-4c2.72-8.18,8.17-25.52,11.15-35.93,3.46-12.63,8.42-28,8.42-28l.74-2.23h13.88v6.19h-9.67c-1.48,4.71-4.95,16.1-7.68,25.77-3,10.4-8.42,27.74-11.14,36.17l-1.24,4C170,171.62,166.06,174.35,159.37,174.35Z" transform="translate(-39.45 -29.9)"/></svg>